HIERARCHY
ROOT Haolin_V1:Solving:Hips
{
	OFFSET 0.000000 0.000000 0.000000
	CHANNELS 6 Xposition Yposition Zposition Xrotation Yrotation Zrotation
	JOINT Haolin_V1:Solving:Spine
	{
		OFFSET 0.000000 -12.731938 2.520517
		CHANNELS 6 Xposition Yposition Zposition Xrotation Yrotation Zrotation
		JOINT Haolin_V1:Solving:Spine1
		{
			OFFSET 0.000000 -8.486854 1.496462
			CHANNELS 6 Xposition Yposition Zposition Xrotation Yrotation Zrotation
			JOINT Haolin_V1:Solving:Spine2
			{
				OFFSET 0.000000 -8.584984 0.751091
				CHANNELS 6 Xposition Yposition Zposition Xrotation Yrotation Zrotation
				JOINT Haolin_V1:Solving:Spine3
				{
					OFFSET 0.000000 -8.617775 0.000000
					CHANNELS 6 Xposition Yposition Zposition Xrotation Yrotation Zrotation
					JOINT Haolin_V1:Solving:Neck
					{
						OFFSET 0.000000 -11.080002 -1.107998
						CHANNELS 6 Xposition Yposition Zposition Xrotation Yrotation Zrotation
						JOINT Haolin_V1:Solving:Neck1
						{
							OFFSET 0.000000 -8.314011 -0.727381
							CHANNELS 6 Xposition Yposition Zposition Xrotation Yrotation Zrotation
							JOINT Haolin_V1:Solving:Head
							{
								OFFSET 0.000000 -8.218975 -1.449226
								CHANNELS 6 Xposition Yposition Zposition Xrotation Yrotation Zrotation
								JOINT Haolin_V1:Solving:HeadEnd
								{
									OFFSET 0.000000 -9.728081 0.000002
									CHANNELS 6 Xposition Yposition Zposition Xrotation Yrotation Zrotation
									End Site
									{
										OFFSET 0.000000 -9.728081 0.000002
									}
								}
							}
						}
					}
					JOINT Haolin_V1:Solving:RightShoulder
					{
						OFFSET 0.000000 -7.914288 -5.288076
						CHANNELS 6 Xposition Yposition Zposition Xrotation Yrotation Zrotation
						JOINT Haolin_V1:Solving:RightArm
						{
							OFFSET -20.201836 -0.000008 0.000000
							CHANNELS 6 Xposition Yposition Zposition Xrotation Yrotation Zrotation
							JOINT Haolin_V1:Solving:RightForeArm
							{
								OFFSET -29.446457 -0.000008 0.000000
								CHANNELS 6 Xposition Yposition Zposition Xrotation Yrotation Zrotation
								JOINT Haolin_V1:Solving:RightHand
								{
									OFFSET -23.111885 -0.000008 0.000000
									CHANNELS 6 Xposition Yposition Zposition Xrotation Yrotation Zrotation
									JOINT Haolin_V1:Solving:RightHandThumb1
									{
										OFFSET -3.824379 2.925484 -2.843767
										CHANNELS 6 Xposition Yposition Zposition Xrotation Yrotation Zrotation
										End Site
										{
											OFFSET -5.557076 0.000000 -5.608460
										}
									}
									JOINT Haolin_V1:Solving:RightHandMiddle1
									{
										OFFSET -10.198334 -0.000004 0.065374
										CHANNELS 6 Xposition Yposition Zposition Xrotation Yrotation Zrotation
										End Site
										{
											OFFSET -7.895309 -0.000004 0.000000
										}
									}
								}
							}
						}
					}
					JOINT Haolin_V1:Solving:LeftShoulder
					{
						OFFSET 0.000000 -7.914288 -5.288076
						CHANNELS 6 Xposition Yposition Zposition Xrotation Yrotation Zrotation
						JOINT Haolin_V1:Solving:LeftArm
						{
							OFFSET 20.201836 -0.000008 0.000000
							CHANNELS 6 Xposition Yposition Zposition Xrotation Yrotation Zrotation
							JOINT Haolin_V1:Solving:LeftForeArm
							{
								OFFSET 29.446457 -0.000008 0.000000
								CHANNELS 6 Xposition Yposition Zposition Xrotation Yrotation Zrotation
								JOINT Haolin_V1:Solving:LeftHand
								{
									OFFSET 23.111885 -0.000008 0.000000
									CHANNELS 6 Xposition Yposition Zposition Xrotation Yrotation Zrotation
									JOINT Haolin_V1:Solving:LeftHandThumb1
									{
										OFFSET 3.824379 2.925484 -2.843767
										CHANNELS 6 Xposition Yposition Zposition Xrotation Yrotation Zrotation
										End Site
										{
											OFFSET 5.557076 0.000000 -5.608460
										}
									}
									JOINT Haolin_V1:Solving:LeftHandMiddle1
									{
										OFFSET 10.198334 -0.000004 0.065374
										CHANNELS 6 Xposition Yposition Zposition Xrotation Yrotation Zrotation
										End Site
										{
											OFFSET 7.895309 -0.000004 0.000000
										}
									}
								}
							}
						}
					}
				}
			}
		}
	}
	JOINT Haolin_V1:Solving:RightUpLeg
	{
		OFFSET -10.695510 0.000000 0.000000
		CHANNELS 6 Xposition Yposition Zposition Xrotation Yrotation Zrotation
		JOINT Haolin_V1:Solving:RightLeg
		{
			OFFSET 0.000000 46.236332 -0.000006
			CHANNELS 6 Xposition Yposition Zposition Xrotation Yrotation Zrotation
			JOINT Haolin_V1:Solving:RightFoot
			{
				OFFSET 0.000000 41.248135 -0.000006
				CHANNELS 6 Xposition Yposition Zposition Xrotation Yrotation Zrotation
				JOINT Haolin_V1:Solving:RightForeFoot
				{
					OFFSET 0.000000 3.207336 -0.000000
					CHANNELS 6 Xposition Yposition Zposition Xrotation Yrotation Zrotation
					JOINT Haolin_V1:Solving:RightToeBase
					{
						OFFSET 0.000000 0.000000 -12.560947
						CHANNELS 6 Xposition Yposition Zposition Xrotation Yrotation Zrotation
						JOINT Haolin_V1:Solving:RightToeBaseEnd
						{
							OFFSET 0.000000 0.000000 -3.517768
							CHANNELS 6 Xposition Yposition Zposition Xrotation Yrotation Zrotation
							End Site
							{
								OFFSET 0.000000 -3.517769 0.000004
							}
						}
					}
				}
			}
		}
	}
	JOINT Haolin_V1:Solving:LeftUpLeg
	{
		OFFSET 10.695510 0.000000 0.000000
		CHANNELS 6 Xposition Yposition Zposition Xrotation Yrotation Zrotation
		JOINT Haolin_V1:Solving:LeftLeg
		{
			OFFSET 0.000000 46.236332 -0.000006
			CHANNELS 6 Xposition Yposition Zposition Xrotation Yrotation Zrotation
			JOINT Haolin_V1:Solving:LeftFoot
			{
				OFFSET 0.000000 41.248135 -0.000006
				CHANNELS 6 Xposition Yposition Zposition Xrotation Yrotation Zrotation
				JOINT Haolin_V1:Solving:LeftForeFoot
				{
					OFFSET 0.000000 3.207336 -0.000000
					CHANNELS 6 Xposition Yposition Zposition Xrotation Yrotation Zrotation
					JOINT Haolin_V1:Solving:LeftToeBase
					{
						OFFSET 0.000000 0.000000 -12.560947
						CHANNELS 6 Xposition Yposition Zposition Xrotation Yrotation Zrotation
						JOINT Haolin_V1:Solving:LeftToeBaseEnd
						{
							OFFSET 0.000000 0.000000 -3.901837
							CHANNELS 6 Xposition Yposition Zposition Xrotation Yrotation Zrotation
							End Site
							{
								OFFSET 0.000000 -3.901840 0.000004
							}
						}
					}
				}
			}
		}
	}
}
MOTION
Frames: 6
Frame Time: 0.041667
-27.287189 -134.604797 -94.916016 87.392482 -3.347315 0.643269 -0.000006 -12.731932 2.520509 11.891483 -0.731990 -1.528828 0.000001 -8.486854 1.496447 -0.603294 -0.123179 0.143272 -0.000000 -8.584980 0.751109 -5.584025 -0.012808 0.885993 0.000004 -8.617776 0.000007 -2.611975 -0.200388 1.280471 0.000005 -11.079971 -1.108022 3.209377 2.697809 -1.302364 0.000001 -8.314013 -0.727426 2.382042 2.174074 -1.427907 0.000001 -8.218988 -1.449214 10.904372 0.367947 -2.602331 0.000001 -9.728111 0.000011 0.000004 -0.000000 0.000000 0.000003 -7.914272 -5.288130 -0.000011 18.384678 11.775108 -20.201836 0.000004 -0.000004 -2.734105 -41.837070 -93.079441 -29.446424 -0.000002 -0.000018 6.200529 -28.594232 2.976508 -23.111912 -0.000017 -0.000006 -0.000089 -0.132375 -0.039208 -3.824392 2.925464 -2.843763 0.000011 0.000002 0.000004 -10.198322 -0.000012 0.065379 -0.000001 -0.000002 0.000004 0.000006 -7.914268 -5.288131 -0.000010 -12.814662 -11.844614 20.201834 0.000003 0.000024 -7.065554 29.100110 96.334142 29.446440 -0.000000 0.000020 23.373918 12.031098 -5.147755 23.111908 -0.000027 0.000005 0.354844 1.499780 -13.313470 3.824409 2.925464 -2.843770 0.000009 0.000005 -0.000001 10.198349 -0.000014 0.065369 0.000006 0.000001 0.000000 -10.695516 -0.000001 -0.000033 6.020377 9.466913 3.246866 0.000002 46.236332 0.000033 0.793268 -0.000001 -0.000000 -0.000001 41.248146 -0.000011 -2.814957 -0.778115 -5.487499 -0.000004 3.207336 -0.000025 -0.000000 0.000001 0.000000 -0.000007 -0.000008 -12.560946 7.795262 0.000000 -0.000000 0.000009 0.000000 -3.517779 0.000001 0.000001 -0.000000 10.695504 -0.000004 -0.000010 -0.230481 -11.169788 2.377533 -0.000005 46.236328 -0.000030 10.811372 -0.000002 0.000001 -0.000002 41.248150 -0.000031 -8.944435 -15.568337 -10.832787 0.000002 3.207336 0.000029 0.000000 -0.000007 -0.000001 -0.000000 0.000000 -12.560946 6.514827 0.000002 0.000002 0.000014 0.000015 -3.901833 -0.000002 0.000002 -0.000001 
-27.132986 -134.547668 -94.918564 87.394101 -3.298764 0.573855 -0.000001 -12.731921 2.520484 11.941179 -0.722393 -1.375015 -0.000001 -8.486848 1.496505 -0.577252 -0.125038 0.149219 0.000005 -8.584990 0.751080 -5.595286 -0.054522 0.878508 0.000002 -8.617771 0.000031 -2.618042 -0.202125 1.284922 -0.000001 -11.080050 -1.107998 3.259569 2.736055 -1.275270 -0.000004 -8.314004 -0.727350 2.363722 2.363818 -1.419147 0.000000 -8.218959 -1.449242 10.827627 0.376405 -2.605938 -0.000002 -9.728073 0.000029 0.000002 -0.000000 0.000000 -0.000003 -7.914307 -5.288102 -0.000012 18.263980 11.707713 -20.201832 -0.000007 -0.000015 -2.867788 -42.897491 -93.645165 -29.446434 -0.000030 0.000011 6.379162 -28.933351 3.095939 -23.111858 -0.000018 0.000009 0.000348 -0.194054 0.104395 -3.824427 2.925499 -2.843766 0.000002 -0.000003 -0.000003 -10.198350 0.000006 0.065382 0.000005 -0.000003 -0.000001 -0.000002 -7.914303 -5.288103 -0.000009 -12.751235 -11.684966 20.201828 0.000004 0.000012 -7.194017 31.104309 96.837835 29.446459 -0.000008 0.000039 23.649747 12.443331 -5.390486 23.111889 -0.000027 0.000020 0.273654 1.185758 -12.996814 3.824378 2.925495 -2.843739 -0.000000 -0.000007 -0.000002 10.198315 0.000013 0.065377 0.000001 -0.000000 -0.000004 -10.695510 0.000025 -0.000023 5.869889 9.647932 3.443384 0.000008 46.236343 0.000002 1.088049 0.000001 -0.000001 0.000000 41.248142 -0.000026 -2.957066 -0.990846 -5.567156 -0.000001 3.207336 -0.000007 0.000000 -0.000001 0.000000 -0.000004 0.000013 -12.560957 7.730134 -0.000001 0.000000 0.000008 0.000015 -3.517773 0.000000 -0.000000 -0.000000 10.695512 0.000005 -0.000020 -0.240643 -11.316058 2.529380 -0.000012 46.236340 -0.000035 11.033335 -0.000001 -0.000000 -0.000008 41.248135 0.000019 -8.953293 -15.483124 -10.808651 -0.000013 3.207336 -0.000005 0.000000 -0.000001 -0.000001 -0.000001 0.000018 -12.560933 6.476204 0.000001 0.000000 0.000006 0.000000 -3.901824 0.000001 0.000003 -0.000000 
-26.989050 -134.492615 -94.912430 87.396375 -3.261296 0.552062 0.000003 -12.731934 2.520576 11.996905 -0.707504 -1.277574 0.000001 -8.486837 1.496485 -0.566548 -0.127322 0.157720 0.000002 -8.584973 0.751097 -5.596020 -0.102987 0.877982 -0.000000 -8.617759 -0.000013 -2.605434 -0.208249 1.275406 -0.000004 -11.080030 -1.108060 3.282542 2.773036 -1.251981 0.000003 -8.313985 -0.727381 2.311086 2.529775 -1.396230 0.000001 -8.218972 -1.449253 10.755548 0.385473 -2.599225 0.000001 -9.728081 -0.000001 -0.000002 -0.000000 -0.000000 0.000001 -7.914261 -5.288141 -0.000007 18.170870 11.648878 -20.201817 -0.000019 -0.000006 -3.026314 -43.817275 -94.145149 -29.446438 -0.000013 0.000015 6.985706 -29.287366 3.430217 -23.111900 -0.000022 -0.000003 -0.000004 -0.252654 0.000854 -3.824331 2.925479 -2.843766 0.000009 -0.000009 0.000003 -10.198301 -0.000015 0.065377 -0.000000 -0.000005 0.000003 0.000003 -7.914257 -5.288141 -0.000005 -12.669749 -11.522796 20.201838 -0.000018 0.000007 -7.343447 32.488659 97.412991 29.446444 -0.000006 0.000006 24.245488 12.723867 -5.664919 23.111870 -0.000022 -0.000004 0.302998 1.338507 -12.757136 3.824412 2.925498 -2.843759 -0.000002 0.000005 0.000004 10.198357 0.000001 0.065362 -0.000007 -0.000002 0.000000 -10.695503 -0.000004 0.000088 5.723424 9.829668 3.580758 -0.000001 46.236351 -0.000052 1.391784 0.000000 0.000000 -0.000007 41.248116 -0.000007 -3.124931 -1.165669 -5.578110 0.000004 3.207336 0.000009 0.000000 -0.000000 0.000000 -0.000001 -0.000018 -12.560961 7.792937 -0.000000 -0.000000 0.000013 0.000015 -3.517777 -0.000001 -0.000000 0.000000 10.695507 0.000012 0.000041 -0.238202 -11.359485 2.636399 -0.000009 46.236320 -0.000017 11.174880 -0.000001 0.000001 -0.000001 41.248146 -0.000022 -9.006433 -15.464694 -10.885459 -0.000006 3.207336 -0.000009 0.000000 -0.000001 -0.000001 -0.000001 0.000010 -12.560958 6.627815 0.000001 0.000002 0.000001 -0.000000 -3.901853 -0.000001 -0.000001 -0.000000 
-26.844246 -134.440094 -94.903572 87.409783 -3.236737 0.537057 0.000005 -12.731928 2.520549 12.039071 -0.693846 -1.192970 -0.000001 -8.486822 1.496487 -0.557975 -0.127952 0.163395 0.000003 -8.584978 0.751076 -5.596012 -0.128162 0.874273 0.000000 -8.617774 -0.000028 -2.596489 -0.208593 1.287344 -0.000004 -11.079990 -1.107998 3.298257 2.793922 -1.219161 -0.000005 -8.313997 -0.727389 2.267335 2.647221 -1.392399 0.000002 -8.218960 -1.449226 10.690885 0.392993 -2.597906 -0.000005 -9.728096 -0.000011 0.000002 0.000000 0.000000 -0.000001 -7.914288 -5.288041 -0.000007 18.039336 11.557450 -20.201822 0.000007 -0.000018 -3.105697 -44.422567 -94.524320 -29.446423 -0.000014 -0.000018 7.073341 -29.671196 3.514887 -23.111883 0.000009 -0.000008 -0.000061 -0.094501 -0.041342 -3.824347 2.925470 -2.843753 0.000004 -0.000007 0.000002 -10.198320 -0.000018 0.065388 0.000000 -0.000005 -0.000003 -0.000001 -7.914288 -5.288041 -0.000005 -12.647243 -11.446893 20.201820 0.000002 -0.000005 -7.737290 35.211705 97.930399 29.446459 -0.000012 -0.000023 23.022654 13.339422 -5.599465 23.111893 0.000001 -0.000007 0.333275 1.522529 -12.348908 3.824356 2.925453 -2.843769 0.000003 -0.000003 0.000000 10.198294 -0.000027 0.065380 0.000001 -0.000003 -0.000003 -10.695501 -0.000003 0.000023 5.559389 10.034685 3.716092 0.000010 46.236328 -0.000063 1.707025 0.000002 0.000000 -0.000012 41.248135 -0.000034 -3.291022 -1.368231 -5.595495 0.000005 3.207336 -0.000024 0.000000 0.000001 0.000000 -0.000004 -0.000013 -12.560927 7.738024 0.000000 -0.000000 -0.000010 0.000007 -3.517788 -0.000002 0.000000 -0.000000 10.695513 0.000014 0.000009 -0.226478 -11.262074 2.751848 -0.000001 46.236355 0.000027 11.248102 -0.000001 0.000001 -0.000009 41.248131 -0.000010 -9.053518 -15.566819 -10.948278 0.000004 3.207336 -0.000015 -0.000000 0.000002 0.000000 -0.000010 0.000004 -12.560953 6.501781 -0.000001 -0.000000 0.000009 -0.000008 -3.901835 0.000000 -0.000001 -0.000001 
-26.700188 -134.383774 -94.895058 87.407597 -3.256629 0.543035 0.000002 -12.731918 2.520542 12.090757 -0.680968 -1.134433 -0.000001 -8.486860 1.496489 -0.548234 -0.127536 0.167087 -0.000001 -8.584990 0.751110 -5.587070 -0.111352 0.864834 0.000003 -8.617799 0.000032 -2.576043 -0.211508 1.287700 0.000003 -11.080001 -1.107949 3.303491 2.848255 -1.170568 0.000000 -8.313998 -0.727374 2.231564 2.752232 -1.375275 -0.000001 -8.218979 -1.449203 10.636491 0.396961 -2.594314 -0.000002 -9.728065 -0.000003 0.000001 -0.000000 -0.000000 0.000000 -7.914307 -5.288059 -0.000009 17.968879 11.470984 -20.201830 -0.000015 -0.000036 -3.264907 -44.706187 -94.792801 -29.446449 0.000018 0.000026 6.727950 -29.824940 3.357721 -23.111897 -0.000016 -0.000012 0.000007 0.013407 -0.037334 -3.824368 2.925458 -2.843748 0.000011 -0.000009 0.000003 -10.198308 -0.000027 0.065381 0.000006 -0.000010 0.000003 0.000000 -7.914307 -5.288058 -0.000007 -12.554816 -11.239604 20.201817 -0.000008 0.000030 -7.704295 35.938184 98.143166 29.446449 -0.000007 0.000005 23.017143 13.985422 -5.861994 23.111881 -0.000004 0.000012 0.319179 1.609501 -11.218859 3.824410 2.925472 -2.843790 0.000006 0.000000 0.000000 10.198326 0.000002 0.065372 0.000003 0.000004 -0.000000 -10.695509 0.000009 0.000018 5.421278 10.280156 3.825853 0.000001 46.236355 0.000007 2.025156 -0.000001 -0.000001 -0.000012 41.248135 0.000021 -3.434180 -1.564926 -5.605930 0.000004 3.207336 0.000015 -0.000000 0.000000 -0.000000 0.000003 -0.000015 -12.560955 7.623325 0.000000 -0.000000 -0.000002 0.000015 -3.517757 -0.000000 0.000001 0.000000 10.695515 0.000028 0.000017 -0.189190 -11.097622 2.850311 -0.000001 46.236336 -0.000043 11.279724 -0.000003 0.000001 -0.000002 41.248127 0.000014 -9.119161 -15.702702 -11.063642 -0.000002 3.207329 -0.000014 0.000000 0.000004 -0.000001 0.000008 0.000003 -12.560931 6.703708 -0.000001 -0.000000 0.000014 0.000008 -3.901820 -0.000000 0.000001 -0.000001 
-26.553408 -134.333923 -94.885132 87.411880 -3.281818 0.537214 0.000007 -12.731910 2.520522 12.139025 -0.668838 -1.072112 -0.000004 -8.486841 1.496447 -0.537711 -0.127329 0.173108 -0.000002 -8.584976 0.751072 -5.567817 -0.084821 0.861709 -0.000000 -8.617780 0.000011 -2.558518 -0.209261 1.290563 -0.000000 -11.080012 -1.108057 3.288377 2.901325 -1.128750 -0.000000 -8.313993 -0.727354 2.206017 2.876332 -1.353744 -0.000002 -8.218937 -1.449213 10.588088 0.400301 -2.581585 -0.000001 -9.728065 -0.000033 0.000003 -0.000000 0.000000 -0.000002 -7.914257 -5.288097 -0.000008 17.906198 11.463094 -20.201830 -0.000017 -0.000007 -3.281954 -44.381186 -94.932191 -29.446424 -0.000009 0.000014 6.986604 -30.085085 3.515282 -23.111898 -0.000013 -0.000003 -0.000492 0.307340 0.092434 -3.824362 2.925492 -2.843748 0.000005 -0.000002 0.000003 -10.198315 -0.000006 0.065384 0.000008 -0.000003 -0.000005 0.000002 -7.914253 -5.288097 -0.000004 -12.473991 -11.081448 20.201820 0.000015 -0.000018 -7.707850 35.778836 98.323032 29.446482 0.000004 0.000014 22.778555 14.259605 -5.905234 23.111895 -0.000004 0.000016 0.326434 1.775607 -10.419230 3.824429 2.925475 -2.843763 -0.000002 0.000005 0.000005 10.198358 0.000012 0.065388 -0.000008 -0.000000 0.000001 -10.695497 0.000026 0.000015 5.258158 10.486249 3.953420 -0.000010 46.236343 -0.000002 2.371141 -0.000001 -0.000001 -0.000002 41.248150 -0.000048 -3.593386 -1.726865 -5.630460 0.000002 3.207336 0.000004 0.000000 -0.000000 -0.000000 -0.000004 0.000000 -12.560936 7.581721 -0.000001 -0.000000 -0.000007 0.000008 -3.517753 0.000000 0.000000 -0.000000 10.695512 0.000025 -0.000018 -0.146421 -10.979219 2.960367 0.000002 46.236320 -0.000005 11.288581 -0.000002 0.000002 -0.000003 41.248131 0.000001 -9.158543 -15.792178 -11.138205 -0.000001 3.207329 0.000005 -0.000001 -0.000002 -0.000001 0.000010 -0.000001 -12.560936 6.465649 0.000001 0.000000 0.000011 -0.000000 -3.901846 -0.000001 0.000002 -0.000001 
